<svg id="visual" viewBox="0 0 900 600" width="900" height="600" xmlns="http://www.w3.org/2000/svg" xmlns:xlink="http://www.w3.org/1999/xlink" version="1.1"><rect x="0" y="0" width="900" height="600" fill="#000000"></rect><path d="M433 600L433.8 585.7C434.7 571.3 436.3 542.7 458.5 514.2C480.7 485.7 523.3 457.3 538.8 428.8C554.3 400.3 542.7 371.7 533.8 343C525 314.3 519 285.7 521.5 257C524 228.3 535 199.7 536.2 171.2C537.3 142.7 528.7 114.3 517 85.8C505.3 57.3 490.7 28.7 483.3 14.3L476 0L900 0L900 14.3C900 28.7 900 57.3 900 85.8C900 114.3 900 142.7 900 171.2C900 199.7 900 228.3 900 257C900 285.7 900 314.3 900 343C900 371.7 900 400.3 900 428.8C900 457.3 900 485.7 900 514.2C900 542.7 900 571.3 900 585.7L900 600Z" fill="#ffaa00"></path><path d="M486 600L484.2 585.7C482.3 571.3 478.7 542.7 485.7 514.2C492.7 485.7 510.3 457.3 514.7 428.8C519 400.3 510 371.7 503 343C496 314.3 491 285.7 499.2 257C507.3 228.3 528.7 199.7 539.2 171.2C549.7 142.7 549.3 114.3 552.7 85.8C556 57.3 563 28.7 566.5 14.3L570 0L900 0L900 14.3C900 28.7 900 57.3 900 85.8C900 114.3 900 142.7 900 171.2C900 199.7 900 228.3 900 257C900 285.7 900 314.3 900 343C900 371.7 900 400.3 900 428.8C900 457.3 900 485.7 900 514.2C900 542.7 900 571.3 900 585.7L900 600Z" fill="#e59301"></path><path d="M550 600L557 585.7C564 571.3 578 542.7 580.7 514.2C583.3 485.7 574.7 457.3 580.3 428.8C586 400.3 606 371.7 607 343C608 314.3 590 285.7 590.5 257C591 228.3 610 199.7 617.5 171.2C625 142.7 621 114.3 610 85.8C599 57.3 581 28.7 572 14.3L563 0L900 0L900 14.3C900 28.7 900 57.3 900 85.8C900 114.3 900 142.7 900 171.2C900 199.7 900 228.3 900 257C900 285.7 900 314.3 900 343C900 371.7 900 400.3 900 428.8C900 457.3 900 485.7 900 514.2C900 542.7 900 571.3 900 585.7L900 600Z" fill="#cb7d02"></path><path d="M600 600L599.3 585.7C598.7 571.3 597.3 542.7 602 514.2C606.7 485.7 617.3 457.3 627.2 428.8C637 400.3 646 371.7 645 343C644 314.3 633 285.7 632.7 257C632.3 228.3 642.7 199.7 639.3 171.2C636 142.7 619 114.3 610 85.8C601 57.3 600 28.7 599.5 14.3L599 0L900 0L900 14.3C900 28.7 900 57.3 900 85.8C900 114.3 900 142.7 900 171.2C900 199.7 900 228.3 900 257C900 285.7 900 314.3 900 343C900 371.7 900 400.3 900 428.8C900 457.3 900 485.7 900 514.2C900 542.7 900 571.3 900 585.7L900 600Z" fill="#b16801"></path><path d="M632 600L639.2 585.7C646.3 571.3 660.7 542.7 665.8 514.2C671 485.7 667 457.3 657.5 428.8C648 400.3 633 371.7 628.5 343C624 314.3 630 285.7 643.7 257C657.3 228.3 678.7 199.7 674.7 171.2C670.7 142.7 641.3 114.3 630.3 85.8C619.3 57.3 626.7 28.7 630.3 14.3L634 0L900 0L900 14.3C900 28.7 900 57.3 900 85.8C900 114.3 900 142.7 900 171.2C900 199.7 900 228.3 900 257C900 285.7 900 314.3 900 343C900 371.7 900 400.3 900 428.8C900 457.3 900 485.7 900 514.2C900 542.7 900 571.3 900 585.7L900 600Z" fill="#975400"></path><path d="M705 600L701.5 585.7C698 571.3 691 542.7 683 514.2C675 485.7 666 457.3 674.2 428.8C682.3 400.3 707.7 371.7 718 343C728.3 314.3 723.7 285.7 714.7 257C705.7 228.3 692.3 199.7 690.3 171.2C688.3 142.7 697.7 114.3 706.3 85.8C715 57.3 723 28.7 727 14.3L731 0L900 0L900 14.3C900 28.7 900 57.3 900 85.8C900 114.3 900 142.7 900 171.2C900 199.7 900 228.3 900 257C900 285.7 900 314.3 900 343C900 371.7 900 400.3 900 428.8C900 457.3 900 485.7 900 514.2C900 542.7 900 571.3 900 585.7L900 600Z" fill="#7e4000"></path><path d="M710 600L718.2 585.7C726.3 571.3 742.7 542.7 740.3 514.2C738 485.7 717 457.3 713.2 428.8C709.3 400.3 722.7 371.7 732.2 343C741.7 314.3 747.3 285.7 744.3 257C741.3 228.3 729.7 199.7 720.8 171.2C712 142.7 706 114.3 706.3 85.8C706.7 57.3 713.3 28.7 716.7 14.3L720 0L900 0L900 14.3C900 28.7 900 57.3 900 85.8C900 114.3 900 142.7 900 171.2C900 199.7 900 228.3 900 257C900 285.7 900 314.3 900 343C900 371.7 900 400.3 900 428.8C900 457.3 900 485.7 900 514.2C900 542.7 900 571.3 900 585.7L900 600Z" fill="#662c00"></path><path d="M743 600L746.3 585.7C749.7 571.3 756.3 542.7 761.5 514.2C766.7 485.7 770.3 457.3 769 428.8C767.7 400.3 761.3 371.7 761.2 343C761 314.3 767 285.7 773.3 257C779.7 228.3 786.3 199.7 784 171.2C781.7 142.7 770.3 114.3 765.3 85.8C760.3 57.3 761.7 28.7 762.3 14.3L763 0L900 0L900 14.3C900 28.7 900 57.3 900 85.8C900 114.3 900 142.7 900 171.2C900 199.7 900 228.3 900 257C900 285.7 900 314.3 900 343C900 371.7 900 400.3 900 428.8C900 457.3 900 485.7 900 514.2C900 542.7 900 571.3 900 585.7L900 600Z" fill="#511900"></path><path d="M818 600L819.7 585.7C821.3 571.3 824.7 542.7 827 514.2C829.3 485.7 830.7 457.3 829 428.8C827.3 400.3 822.7 371.7 815.3 343C808 314.3 798 285.7 801.7 257C805.3 228.3 822.7 199.7 828.2 171.2C833.7 142.7 827.3 114.3 819 85.8C810.7 57.3 800.3 28.7 795.2 14.3L790 0L900 0L900 14.3C900 28.7 900 57.3 900 85.8C900 114.3 900 142.7 900 171.2C900 199.7 900 228.3 900 257C900 285.7 900 314.3 900 343C900 371.7 900 400.3 900 428.8C900 457.3 900 485.7 900 514.2C900 542.7 900 571.3 900 585.7L900 600Z" fill="#3f0400"></path><path d="M853 600L856.5 585.7C860 571.3 867 542.7 868 514.2C869 485.7 864 457.3 862.2 428.8C860.3 400.3 861.7 371.7 861.8 343C862 314.3 861 285.7 857.8 257C854.7 228.3 849.3 199.7 851.7 171.2C854 142.7 864 114.3 861.7 85.8C859.3 57.3 844.7 28.7 837.3 14.3L830 0L900 0L900 14.3C900 28.7 900 57.3 900 85.8C900 114.3 900 142.7 900 171.2C900 199.7 900 228.3 900 257C900 285.7 900 314.3 900 343C900 371.7 900 400.3 900 428.8C900 457.3 900 485.7 900 514.2C900 542.7 900 571.3 900 585.7L900 600Z" fill="#000000"></path></svg>